# xmcd CD database file
#
# Track frame offsets:
#        150
#        19142
#        42537
#        61273
#        83132
#        105480
#        125652
#        146756
#        166004
#        187461
#        218280
#        239678
#
# Disc length: 3497 seconds
#
# Revision: 0
# Processed by: cddbd v1.5.2PL0 Copyright (c) Steve Scherf et al.
# Submitted via: CUERipper 2.1.6
#
DISCID=aa0da70c
DTITLE=劉悅 - 飛蛾
DYEAR=2005
DGENRE=A Cappella
TTITLE0=他一定很愛你
TTITLE1=飛蛾
TTITLE2=2002年的第一場雪
TTITLE3=那一天
TTITLE4=黃昏
TTITLE5=翅膀
TTITLE6=望鄉
TTITLE7=七月七日情
TTITLE8=分手快樂
TTITLE9=秋意濃
TTITLE10=愛過的人才知道
TTITLE11=最浪漫的事
EXTD=
EXTT0=
EXTT1=
EXTT2=
EXTT3=
EXTT4=
EXTT5=
EXTT6=
EXTT7=
EXTT8=
EXTT9=
EXTT10=
EXTT11=
PLAYORDER=
